# xmcd
#
# Track frame offsets:
#	150
#	10394
#	26488
#	40361
#	59978
#	75957
#	91027
#	105460
#	128059
#	141305
#
# Disc length: 2405 seconds
#
# Revision: 1
# Processed by: cddbd v1.5.1PL0 Copyright (c) Steve Scherf et al.
# Submitted via: audiograbber 1.83.01
#
DISCID=7c09630a
DTITLE=The Alabama Blues Brothers - Meet Me With Your Flag Drawers On
DYEAR=2003
DGENRE=Blues
TTITLE0=Peter Gunn
TTITLE1=Everybody Needs Somebody
TTITLE2=Hey Bartender
TTITLE3=Gimme Some Lovin'
TTITLE4=Rawhide
TTITLE5=Jailhouse Rock
TTITLE6=Almost
TTITLE7=Rubber Biscuit
TTITLE8=Soul Man
TTITLE9=Meet Me With Your Flag Drawers On
EXTD=
EXTT0=
EXTT1=
EXTT2=
EXTT3=
EXTT4=
EXTT5=
EXTT6=
EXTT7=
EXTT8=
EXTT9=
PLAYORDER=
